<svg width="22" height="22" viewBox="0 0 22 22" fill="none" xmlns="http://www.w3.org/2000/svg">
<path fill-rule="evenodd" clip-rule="evenodd" d="M4.58553 5.23434C0.561651 9.36387 0.716955 16.0054 4.79403 20.0823L5.94187 21.2301C6.05165 21.34 6.22944 21.34 6.33922 21.2301L8.06124 19.5081C8.17102 19.3984 8.17102 19.2204 8.06124 19.1109L6.80288 17.8522C3.3828 14.4321 3.35339 8.9167 6.73693 5.53296C9.82205 2.44784 14.6788 2.20093 18.1043 4.77348C18.2413 4.87633 18.2517 5.07866 18.1306 5.19986C18.0309 5.29954 17.8737 5.31077 17.76 5.22741C14.935 3.15598 11.0594 3.29293 8.63937 5.71318C5.95067 8.40188 6.07731 12.8877 8.92244 15.7326L10.1808 16.9913C10.2906 17.101 10.4686 17.101 10.5783 16.9913L12.3004 15.2692C12.4101 15.1594 12.4101 14.9814 12.3004 14.8717L11.0418 13.6133C9.13488 11.7064 9.20514 8.54426 11.1988 6.55058C12.8541 4.89525 15.3145 4.56684 17.1937 5.59421C17.3688 5.69013 17.4009 5.92955 17.2597 6.0708C17.1713 6.15923 17.0364 6.18546 16.9228 6.13244C15.6891 5.55431 14.1743 5.77426 13.1569 6.79562C11.8523 8.10532 11.9165 10.2489 13.2236 11.5559L14.4199 12.7523C14.5295 12.8619 14.7075 12.8619 14.8173 12.7523L16.5393 11.0301C16.649 10.9203 16.649 10.7425 16.5393 10.6327L15.3173 9.41051C14.7528 8.84606 14.6859 7.92734 15.2126 7.32768C15.7899 6.67029 16.7919 6.64613 17.4005 7.2548L17.7615 7.61579C18.326 8.18026 19.2446 8.24714 19.8445 7.72034C20.5018 7.14314 20.5258 6.14124 19.9174 5.53257L19.5199 5.13524C15.3902 1.00551 8.67384 1.03848 4.58553 5.23434Z" fill="black"/>
</svg>
