<svg width="25" height="22" viewBox="0 0 25 22" fill="none" xmlns="http://www.w3.org/2000/svg">
<path d="M7.3167 7.673L11.8757 5.041C11.9317 5.0089 11.9951 4.992 12.0597 4.992C12.1243 4.992 12.1877 5.0089 12.2437 5.041L16.8027 7.673C16.8587 7.70556 16.9052 7.75226 16.9375 7.80842C16.9697 7.86457 16.9867 7.92822 16.9867 7.993V13.256C16.9866 13.3206 16.9695 13.3841 16.9372 13.44C16.9049 13.496 16.8586 13.5425 16.8027 13.575L12.2437 16.207C12.1877 16.2391 12.1243 16.256 12.0597 16.256C11.9951 16.256 11.9317 16.2391 11.8757 16.207L7.3167 13.575C7.2607 13.5424 7.21424 13.4957 7.18195 13.4396C7.14966 13.3834 7.13268 13.3198 7.1327 13.255V7.993C7.13268 7.92822 7.14966 7.86457 7.18195 7.80842C7.21424 7.75226 7.2607 7.70556 7.3167 7.673ZM23.9117 10.071L18.4657 0.596C18.2677 0.253 17.9017 0 17.5057 0H6.6147C6.2187 0 5.8527 0.253 5.6547 0.596L0.208702 10.05C0.11192 10.2202 0.0610352 10.4127 0.0610352 10.6085C0.0610352 10.8043 0.11192 10.9968 0.208702 11.167L5.6557 20.565C5.8527 20.907 6.2187 21.082 6.6147 21.082H17.5077C17.9027 21.082 18.2677 20.912 18.4667 20.57L23.9127 11.157C24.0096 10.9925 24.0607 10.805 24.0607 10.614C24.0607 10.423 24.0096 10.2355 23.9127 10.071M19.4027 14.627C19.4008 14.6962 19.3811 14.7637 19.3453 14.8229C19.3096 14.8822 19.259 14.9311 19.1987 14.965L12.2597 18.967C12.1999 19.0006 12.1324 19.0183 12.0637 19.0183C11.995 19.0183 11.9275 19.0006 11.8677 18.967L4.9247 14.965C4.86418 14.9312 4.81347 14.8823 4.77753 14.8231C4.74159 14.7638 4.72167 14.6963 4.7197 14.627V6.621C4.7197 6.481 4.8027 6.352 4.9237 6.283L11.8597 2.281C11.9797 2.211 12.1317 2.211 12.2517 2.281L19.1947 6.284C19.2554 6.31763 19.3063 6.36647 19.3424 6.42573C19.3786 6.48499 19.3986 6.55263 19.4007 6.622L19.4027 14.627Z" fill="#4B32C3"/>
</svg>
