<svg width="22" height="24" viewBox="0 0 22 24" fill="none" xmlns="http://www.w3.org/2000/svg">
<path d="M10.6805 0C10.1133 0 9.5694 0.225306 9.16835 0.626352C8.76731 1.0274 8.542 1.57133 8.542 2.1385C8.542 2.70567 8.76731 3.2496 9.16835 3.65065C9.5694 4.05169 10.1133 4.277 10.6805 4.277C11.2477 4.277 11.7916 4.05169 12.1926 3.65065C12.5937 3.2496 12.819 2.70567 12.819 2.1385C12.819 1.57133 12.5937 1.0274 12.1926 0.626352C11.7916 0.225306 11.2477 0 10.6805 0ZM19.2205 4.931C18.6533 4.931 18.1094 5.15631 17.7084 5.55735C17.3073 5.9584 17.082 6.50233 17.082 7.0695C17.082 7.63667 17.3073 8.1806 17.7084 8.58165C18.1094 8.98269 18.6533 9.208 19.2205 9.208C19.7877 9.208 20.3316 8.98269 20.7326 8.58165C21.1337 8.1806 21.359 7.63667 21.359 7.0695C21.359 6.50233 21.1337 5.9584 20.7326 5.55735C20.3316 5.15631 19.7877 4.931 19.2205 4.931ZM19.2205 14.793C18.6533 14.793 18.1094 15.0183 17.7084 15.4194C17.3073 15.8204 17.082 16.3643 17.082 16.9315C17.082 17.4987 17.3073 18.0426 17.7084 18.4436C18.1094 18.8447 18.6533 19.07 19.2205 19.07C19.7877 19.07 20.3316 18.8447 20.7326 18.4436C21.1337 18.0426 21.359 17.4987 21.359 16.9315C21.359 16.3643 21.1337 15.8204 20.7326 15.4194C20.3316 15.0183 19.7877 14.793 19.2205 14.793ZM10.6805 19.724C10.1135 19.724 9.56966 19.9493 9.16871 20.3502C8.76775 20.7512 8.5425 21.295 8.5425 21.862C8.5425 22.429 8.76775 22.9728 9.16871 23.3738C9.56966 23.7747 10.1135 24 10.6805 24C11.2475 24 11.7913 23.7747 12.1923 23.3738C12.5932 22.9728 12.8185 22.429 12.8185 21.862C12.8185 21.295 12.5932 20.7512 12.1923 20.3502C11.7913 19.9493 11.2475 19.724 10.6805 19.724ZM2.1385 14.794C1.85773 14.794 1.57972 14.8493 1.32032 14.9567C1.06093 15.0642 0.825237 15.2217 0.626706 15.4202C0.428174 15.6187 0.27069 15.8544 0.163246 16.1138C0.055801 16.3732 0.000499964 16.6512 0.000499964 16.932C0.000499964 17.2128 0.055801 17.4908 0.163246 17.7502C0.27069 18.0096 0.428174 18.2453 0.626706 18.4438C0.825237 18.6423 1.06093 18.7998 1.32032 18.9073C1.57972 19.0147 1.85773 19.07 2.1385 19.07C2.70567 19.07 3.2496 18.8447 3.65065 18.4436C4.05169 18.0426 4.277 17.4987 4.277 16.9315C4.277 16.3643 4.05169 15.8204 3.65065 15.4194C3.2496 15.0183 2.70567 14.794 2.1385 14.794ZM2.1385 4.931C1.57133 4.931 1.0274 5.15631 0.626352 5.55735C0.225306 5.9584 0 6.50233 0 7.0695C0 7.63667 0.225306 8.1806 0.626352 8.58165C1.0274 8.98269 1.57133 9.208 2.1385 9.208C2.70567 9.208 3.2496 8.98269 3.65065 8.58165C4.05169 8.1806 4.277 7.63667 4.277 7.0695C4.277 6.50233 4.05169 5.9584 3.65065 5.55735C3.2496 5.15631 2.70567 4.931 2.1385 4.931ZM10.6805 1.553L1.6315 6.777V17.225L10.6805 22.449L19.7275 17.225V6.777L10.6805 1.553ZM10.6805 3.154L18.3405 16.424H3.0185L10.6805 3.154ZM9.2935 3.525L2.6485 15.037V7.363L9.2935 3.525ZM12.0675 3.525L18.7135 7.363V15.037L12.0675 3.525ZM4.0335 17.44H17.3265L10.6805 21.276L4.0335 17.44Z" fill="#E10098"/>
</svg>
