<svg width="24" height="24" viewBox="0 0 24 24" fill="none" xmlns="http://www.w3.org/2000/svg">
<path d="M11.573 3.6351e-05C11.396 3.6351e-05 11.263 0.00103635 11.214 0.00703635L10.85 0.0400364C7.44298 0.347036 4.24998 2.18604 2.22798 5.01204C1.11062 6.56405 0.383761 8.36249 0.108977 10.255C0.0129766 10.914 0.000976562 11.109 0.000976562 12.002C0.000976562 12.895 0.0129766 13.091 0.108977 13.75C0.760977 18.256 3.96898 22.042 8.31798 23.445C9.09698 23.695 9.91798 23.867 10.852 23.97C11.215 24.01 12.787 24.01 13.151 23.97C14.762 23.792 16.128 23.393 17.474 22.706C17.681 22.6 17.721 22.572 17.693 22.548C17.673 22.535 16.793 21.355 15.738 19.928L13.819 17.336L11.415 13.778C10.6152 12.5876 9.80782 11.4022 8.99298 10.222C8.98398 10.22 8.97498 11.801 8.96998 13.732C8.96298 17.112 8.95998 17.247 8.91798 17.327C8.87691 17.4206 8.80388 17.4964 8.71198 17.541C8.63698 17.578 8.57198 17.585 8.21698 17.585H7.80998L7.70198 17.517C7.63528 17.4751 7.58106 17.4161 7.54498 17.346L7.49498 17.24L7.50098 12.537L7.50798 7.83204L7.57998 7.74004C7.62988 7.68329 7.68864 7.635 7.75398 7.59704C7.84998 7.55004 7.88798 7.54604 8.29398 7.54604C8.77198 7.54604 8.85198 7.56404 8.97598 7.70004C9.01098 7.73804 10.313 9.69904 11.871 12.061L16.606 19.231L18.506 22.11L18.602 22.047C19.5169 21.4394 20.3462 20.7119 21.068 19.884C22.5799 18.1537 23.5605 16.0238 23.892 13.75C23.988 13.09 24 12.896 24 12.002C24 11.109 23.988 10.914 23.892 10.255C23.24 5.74904 20.033 1.96304 15.684 0.560036C14.8708 0.30154 14.0335 0.126307 13.185 0.0370364C12.648 0.0115755 12.1105 -0.000761532 11.573 3.6351e-05ZM15.641 7.21704C15.988 7.21704 16.049 7.22204 16.127 7.26404C16.1829 7.2921 16.2327 7.33105 16.2734 7.37862C16.3141 7.42619 16.3449 7.48141 16.364 7.54104C16.382 7.60104 16.387 8.90604 16.382 11.845L16.376 16.063L15.632 14.923L14.886 13.783V10.717C14.886 8.73504 14.896 7.62004 14.909 7.56704C14.9258 7.50454 14.9552 7.44609 14.9952 7.39522C15.0353 7.34436 15.0852 7.30211 15.142 7.27104C15.238 7.22104 15.272 7.21704 15.642 7.21704H15.641Z" fill="black"/>
</svg>
