<svg width="24" height="24" viewBox="0 0 24 24" fill="none" xmlns="http://www.w3.org/2000/svg">
<g clip-path="url(#clip0_2011_40)">
<path d="M22.2822 9.82096C22.55 9.01287 22.6425 8.15698 22.5535 7.31032C22.4646 6.46367 22.1961 5.6457 21.7662 4.91095C21.1277 3.80076 20.1534 2.92181 18.9835 2.40067C17.8136 1.87953 16.5085 1.74307 15.2562 2.01095C14.5448 1.21962 13.6378 0.629359 12.6262 0.299424C11.6146 -0.0305122 10.534 -0.0885057 9.49294 0.131265C8.45184 0.351037 7.48687 0.840838 6.69494 1.55149C5.903 2.26214 5.31196 3.16864 4.98116 4.17996C4.1469 4.35133 3.35877 4.69864 2.66936 5.19871C1.97994 5.69879 1.40509 6.34013 0.983164 7.07996C0.338725 8.18892 0.0634038 9.47401 0.196954 10.7497C0.330504 12.0253 0.866015 13.2255 1.72616 14.177C1.45663 14.9847 1.3627 15.8406 1.45066 16.6875C1.53861 17.5345 1.80642 18.3529 2.23616 19.088C2.87493 20.1991 3.85006 21.0787 5.02097 21.5999C6.19187 22.1211 7.49805 22.257 8.75116 21.988C9.31658 22.6245 10.0112 23.1332 10.7887 23.4802C11.5662 23.8271 12.4088 24.0043 13.2602 24C14.5437 24.0005 15.7943 23.5935 16.8316 22.8376C17.8689 22.0817 18.6395 21.0159 19.0322 19.794C19.866 19.6218 20.6537 19.2742 21.3428 18.7742C22.032 18.2742 22.6068 17.6333 23.0292 16.894C23.6659 15.7867 23.9366 14.5066 23.8024 13.2363C23.6683 11.9661 23.1362 10.7708 22.2822 9.82096ZM13.2602 22.43C12.2092 22.4314 11.1912 22.0632 10.3842 21.39L10.5252 21.309L15.3042 18.551C15.4226 18.4808 15.5209 18.3812 15.5895 18.2619C15.6582 18.1426 15.6949 18.0076 15.6962 17.87V11.133L17.7162 12.301C17.7262 12.3059 17.7349 12.3133 17.7415 12.3223C17.7481 12.3314 17.7525 12.3419 17.7542 12.353V17.936C17.7515 19.127 17.2772 20.2686 16.435 21.1108C15.5928 21.953 14.4512 22.4273 13.2602 22.43ZM3.60016 18.304C3.07266 17.3936 2.88321 16.3263 3.06516 15.29L3.20716 15.375L7.99016 18.134C8.1084 18.2034 8.24304 18.24 8.38016 18.24C8.51729 18.24 8.65193 18.2034 8.77016 18.134L14.6132 14.765V17.097C14.6127 17.1091 14.6096 17.121 14.6038 17.1318C14.5981 17.1425 14.59 17.1518 14.5802 17.159L9.74016 19.95C8.70736 20.5445 7.48088 20.7051 6.32981 20.3966C5.17873 20.088 4.19706 19.3354 3.60016 18.304ZM2.34016 7.89596C2.87214 6.9804 3.70993 6.28177 4.70616 5.92296V11.6C4.70466 11.7371 4.73984 11.8722 4.80806 11.9912C4.87627 12.1103 4.97505 12.2089 5.09416 12.277L10.9092 15.631L8.88916 16.799C8.87813 16.8044 8.86598 16.8073 8.85366 16.8073C8.84135 16.8073 8.8292 16.8044 8.81816 16.799L3.98816 14.013C2.9569 13.4156 2.20441 12.4339 1.89552 11.2829C1.58663 10.1319 1.74652 8.90534 2.34016 7.87196V7.89596ZM18.9372 11.751L13.1042 8.36396L15.1192 7.19995C15.1302 7.19449 15.1423 7.19165 15.1547 7.19165C15.167 7.19165 15.1791 7.19449 15.1902 7.19995L20.0202 9.99096C20.7591 10.4169 21.3616 11.0443 21.7572 11.7999C22.1528 12.5555 22.3253 13.408 22.2544 14.258C22.1835 15.1079 21.8722 15.9202 21.3569 16.5998C20.8415 17.2794 20.1434 17.7983 19.3442 18.096V12.418C19.34 12.281 19.3003 12.1476 19.2289 12.0306C19.1575 11.9137 19.057 11.8173 18.9372 11.751ZM20.9472 8.72795L20.8062 8.64295L16.0322 5.86096C15.913 5.79156 15.7776 5.75501 15.6397 5.75501C15.5018 5.75501 15.3663 5.79156 15.2472 5.86096L9.40916 9.22995V6.89696C9.40835 6.88526 9.41048 6.87354 9.41538 6.86288C9.42027 6.85222 9.42776 6.84296 9.43716 6.83596L14.2672 4.04895C15.0075 3.62288 15.8538 3.41632 16.7072 3.45343C17.5606 3.49053 18.3858 3.76976 19.0864 4.25849C19.787 4.74721 20.334 5.42524 20.6635 6.21333C20.993 7.00142 21.0914 7.86702 20.9472 8.70895V8.72795ZM8.30716 12.863L6.28716 11.699C6.277 11.6929 6.26833 11.6846 6.26175 11.6747C6.25518 11.6649 6.25088 11.6537 6.24916 11.642V6.07495C6.25084 5.22105 6.49544 4.38525 6.95439 3.66517C7.41334 2.94509 8.06769 2.37045 8.84103 2.00837C9.61437 1.64629 10.4748 1.51172 11.3217 1.62037C12.1687 1.72902 12.9673 2.0764 13.6242 2.62195L13.4822 2.70195L8.70416 5.45996C8.58557 5.53003 8.48708 5.62954 8.41823 5.74884C8.34938 5.86815 8.3125 6.00321 8.31116 6.14095L8.30716 12.863ZM9.40416 10.498L12.0062 8.99796L14.6132 10.498V13.497L12.0162 14.997L9.40916 13.497L9.40416 10.498Z" fill="#412991"/>
</g>
<defs>
<clipPath id="clip0_2011_40">
<rect width="24" height="24" fill="white"/>
</clipPath>
</defs>
</svg>
