<svg width="26" height="30" viewBox="0 0 26 30" fill="none" xmlns="http://www.w3.org/2000/svg">
<path fill-rule="evenodd" clip-rule="evenodd" d="M3.53753 0L12.1388 7.87073V7.86892V0.0181613H13.8131V7.90595L22.4528 0V8.9738H26V21.9177H22.4637V29.9084L13.8131 22.36V29.9951H12.1388V22.4844L3.54728 30V21.9177H0V8.9738H3.53753V0ZM10.8765 10.6164H1.67431V20.2751H3.54518V17.2284L10.8765 10.6164ZM5.22151 17.9572V26.3347L12.1388 20.2837V11.7172L5.22151 17.9572ZM13.8612 20.2037V11.7091L20.7805 17.9495V21.9177H20.7894V26.2491L13.8612 20.2037ZM22.4637 20.2751H24.3257V10.6164H15.192L22.4637 17.1599V20.2751ZM20.7785 8.9738V3.77832L15.1007 8.9738H20.7785ZM10.8895 8.9738H5.21185V3.77832L10.8895 8.9738Z" fill="black"/>
</svg>
