<svg width="24" height="22" viewBox="0 0 24 22" fill="none" xmlns="http://www.w3.org/2000/svg">
<path d="M14.23 11.0042C14.23 11.597 13.9946 12.1656 13.5754 12.5849C13.1563 13.0042 12.5879 13.2399 11.995 13.2402C11.402 13.2402 10.8332 13.0046 10.4139 12.5852C9.99458 12.1659 9.759 11.5972 9.759 11.0042C9.759 10.4113 9.99444 9.84272 10.4136 9.42342C10.8327 9.00412 11.4011 8.76842 11.994 8.76816C12.587 8.76816 13.1558 9.00374 13.5751 9.42307C13.9944 9.8424 14.23 10.4111 14.23 11.0042ZM16.878 0.314159C15.532 0.314159 13.771 1.27416 11.99 2.93616C10.21 1.28316 8.448 0.334159 7.103 0.334159C6.693 0.334159 6.32 0.427159 5.997 0.612159C4.622 1.40516 4.314 3.87616 5.024 6.97716C1.98 7.91716 0 9.42016 0 11.0042C0 12.5942 1.99 14.1012 5.043 15.0342C4.339 18.1472 4.653 20.6222 6.031 21.4142C6.351 21.6012 6.721 21.6892 7.133 21.6892C8.478 21.6892 10.24 20.7292 12.021 19.0652C13.801 20.7192 15.563 21.6682 16.908 21.6682C17.318 21.6682 17.691 21.5782 18.014 21.3932C19.388 20.6012 19.697 18.1302 18.987 15.0282C22.02 14.0962 24 12.5902 24 11.0042C24 9.41416 22.01 7.90716 18.957 6.97216C19.661 3.86216 19.347 1.38516 17.969 0.592159C17.6358 0.404951 17.2601 0.309051 16.878 0.314159ZM16.873 1.40416V1.41016C17.098 1.41016 17.279 1.45416 17.431 1.53716C18.097 1.91916 18.386 3.37216 18.161 5.24116C18.107 5.70116 18.019 6.18616 17.911 6.68116C16.8885 6.43381 15.8505 6.25541 14.804 6.14716C14.1806 5.28736 13.5007 4.4699 12.769 3.70016C14.361 2.22016 15.856 1.40816 16.874 1.40516L16.873 1.40416ZM7.103 1.42416C8.115 1.42416 9.617 2.23216 11.213 3.70416C10.527 4.42416 9.843 5.24116 9.193 6.14616C8.14423 6.25393 7.10411 6.43369 6.08 6.68416C5.97261 6.21517 5.88784 5.74129 5.826 5.26416C5.596 3.39616 5.88 1.94416 6.54 1.55716C6.73 1.46716 6.94 1.42916 7.103 1.42416ZM11.985 4.47416C12.441 4.94349 12.8943 5.46483 13.345 6.03816C12.905 6.01816 12.455 6.00416 12 6.00416C11.5393 6.00349 11.086 6.01483 10.64 6.03816C11.08 5.46616 11.535 4.94316 11.985 4.47416ZM12 7.10016C12.74 7.10016 13.477 7.13416 14.202 7.19316C14.6087 7.77583 15.003 8.39583 15.385 9.05316C15.7563 9.69383 16.0957 10.3425 16.403 10.9992C16.095 11.6542 15.757 12.3092 15.39 12.9492C15.01 13.6092 14.617 14.2372 14.21 14.8192C12.7422 14.9478 11.2661 14.9495 9.798 14.8242C9.37851 14.2205 8.98385 13.6 8.615 12.9642C8.24367 12.3235 7.90433 11.6748 7.597 11.0182C7.90582 10.3523 8.24381 9.7003 8.61 9.06416C8.99 8.40416 9.383 7.77816 9.79 7.19616C10.5249 7.1309 11.2622 7.0982 12 7.09816V7.10016ZM8.365 7.35416C8.125 7.73116 7.885 8.11716 7.661 8.51416C7.437 8.90416 7.22533 9.29549 7.026 9.68816C6.761 9.03216 6.536 8.37816 6.35 7.74116C6.99 7.59116 7.665 7.45716 8.365 7.35416ZM15.625 7.35416C16.321 7.45616 16.9897 7.58516 17.631 7.74116C17.451 8.37316 17.226 9.02316 16.971 9.67416C16.5629 8.87816 16.114 8.1038 15.626 7.35416H15.625ZM18.688 8.02916C19.1727 8.17983 19.631 8.34583 20.063 8.52716C21.795 9.26716 22.915 10.2352 22.915 11.0032C22.91 11.7712 21.79 12.7432 20.058 13.4782C19.638 13.6582 19.178 13.8202 18.703 13.9712C18.4025 12.9546 18.0351 11.9591 17.603 10.9912C18.053 9.97416 18.413 8.98116 18.688 8.02716V8.02916ZM5.293 8.03316C5.571 8.99316 5.938 9.99016 6.393 11.0132C5.96355 11.9751 5.60069 12.9655 5.307 13.9772C4.823 13.8272 4.363 13.6592 3.937 13.4772C2.205 12.7402 1.085 11.7712 1.085 11.0032C1.085 10.2352 2.205 9.26116 3.937 8.52716C4.357 8.34716 4.817 8.18516 5.293 8.03316ZM16.971 12.3132C17.236 12.9702 17.461 13.6252 17.647 14.2612C17.007 14.4182 16.331 14.5512 15.631 14.6512C16.1181 13.8955 16.5647 13.1152 16.971 12.3132ZM7.026 12.3332C7.226 12.7252 7.436 13.1162 7.666 13.5082C7.896 13.8988 8.131 14.2798 8.371 14.6512C7.69672 14.5536 7.02733 14.4248 6.365 14.2652C6.545 13.6352 6.771 12.9832 7.025 12.3322L7.026 12.3332ZM17.92 15.3202C18.032 15.8132 18.12 16.2882 18.174 16.7432C18.404 18.6112 18.12 20.0632 17.46 20.4512C17.313 20.5412 17.122 20.5792 16.897 20.5792C15.885 20.5792 14.383 19.7722 12.787 18.2992C13.473 17.5792 14.157 16.7632 14.807 15.8592C15.914 15.7412 16.961 15.5602 17.92 15.3202ZM6.09 15.3302C7.05 15.5642 8.096 15.7452 9.197 15.8622C9.857 16.7672 10.542 17.5892 11.232 18.3082C9.637 19.7912 8.14 20.6032 7.122 20.6032C6.92975 20.6041 6.7401 20.5588 6.569 20.4712C5.903 20.0912 5.614 18.6372 5.839 16.7682C5.893 16.3082 5.982 15.8242 6.09 15.3302ZM10.65 15.9702C11.0907 15.9915 11.539 16.0028 11.995 16.0042C12.4557 16.0048 12.909 15.9935 13.355 15.9702C12.915 16.5422 12.46 17.0652 12.01 17.5352C11.554 17.0645 11.1007 16.5428 10.65 15.9702Z" fill="#61DAFB"/>
</svg>
