<svg width="12" height="12" viewBox="0 0 12 12" fill="none" xmlns="http://www.w3.org/2000/svg">
<g clip-path="url(#clip0_2008_19)">
<path d="M11.1091 5.89164L5.89164 11.1091C5.68814 11.3126 5.68814 11.6431 5.89164 11.8471C6.09514 12.0506 6.42564 12.0506 6.62964 11.8471L11.8471 6.62964C12.0506 6.42564 12.0506 6.09514 11.8471 5.89164C11.6431 5.68814 11.3126 5.68814 11.1091 5.89164ZM10.0656 0.152137L0.152137 10.0656C-0.0513633 10.2691 -0.0513633 10.5996 0.152137 10.8036C0.356137 11.0071 0.686637 11.0071 0.890137 10.8036L10.8036 0.890137C11.0071 0.686637 11.0071 0.356137 10.8036 0.152137C10.5996 -0.0513633 10.2691 -0.0513633 10.0656 0.152137Z" fill="black"/>
</g>
<defs>
<clipPath id="clip0_2008_19">
<rect width="12" height="12" fill="white"/>
</clipPath>
</defs>
</svg>
