<svg width="24" height="24" viewBox="0 0 24 24" fill="none" xmlns="http://www.w3.org/2000/svg">
<path d="M16.214 6.76221L16.139 7.15321C16.023 7.89421 16.065 8.10621 16.383 8.38121L16.69 8.63521L16.372 10.0532C16.182 10.8992 15.949 11.6082 15.801 11.8412C15.674 12.0422 15.526 12.3382 15.494 12.4972C15.441 12.6872 15.261 12.8782 14.986 13.0472C14.743 13.1852 14.266 13.5552 13.928 13.8522C13.658 14.0952 13.472 14.2442 13.371 14.3082L13.041 14.5692C12.9561 14.6951 12.8923 14.8339 12.852 14.9802C12.829 15.0872 12.842 15.1582 12.876 15.2102C12.9093 15.2602 12.9653 15.2959 13.044 15.3172C13.1364 15.3382 13.2314 15.3459 13.326 15.3402C13.5401 15.3256 13.7519 15.288 13.958 15.2282C14.028 15.2092 14.083 15.1912 14.131 15.1752C14.205 15.0842 14.376 14.9122 14.679 14.6132C15.483 13.8202 15.79 13.3862 15.473 13.5032C15.356 13.5452 15.409 13.4392 15.61 13.2272C16.034 12.8142 16.277 12.1902 16.785 10.2332C17.187 8.68821 17.187 8.66621 17.483 8.66621C17.622 8.66621 18.015 8.69021 18.015 8.69021V6.76221H17.113H16.214ZM20.053 9.92721C19.989 9.92721 19.883 10.0232 19.82 10.1292C19.704 10.3192 19.841 10.4352 21.587 11.5252C22.624 12.1822 23.46 12.7422 23.439 12.7852C23.418 12.8162 22.571 13.3672 21.556 14.0022C19.714 15.1442 19.704 15.1552 19.873 15.3882C20.085 15.6632 19.873 15.7582 22.264 14.2662L24 13.1552V12.3192L22.063 11.1232C21.016 10.4672 20.106 9.93821 20.053 9.92721ZM3.968 10.0442C3.915 10.0442 3.005 10.5842 1.958 11.2292L0 12.4252V13.2612L1.947 14.4782C3.027 15.1442 3.937 15.6952 3.979 15.6952C4.021 15.6952 4.106 15.5992 4.191 15.4832C4.318 15.2822 4.211 15.1972 2.423 14.0652C0.72 12.9962 0.54 12.8482 0.71 12.7322C0.816 12.6582 1.62 12.1602 2.488 11.6212C4.467 10.4042 4.361 10.4882 4.202 10.2342C4.139 10.1292 4.032 10.0342 3.969 10.0442H3.968ZM12.652 10.0672C12.36 10.0652 11.732 10.5102 9.852 12.0452C9.771 12.2382 9.764 12.3712 9.801 12.4572C9.82567 12.5152 9.86867 12.5585 9.93 12.5872C9.99 12.6172 10.068 12.6352 10.154 12.6422C10.325 12.6572 10.527 12.6302 10.69 12.5982L10.8 12.5732C10.8381 12.5231 10.8874 12.4827 10.944 12.4552C11.06 12.3912 11.547 11.9472 12.034 11.4712C12.891 10.6032 13.092 10.2112 12.743 10.0842C12.7147 10.0717 12.6829 10.0658 12.652 10.0672ZM14.848 10.6702C14.591 10.6772 14.128 10.9752 13.335 11.6082C12.937 11.9312 12.685 12.1052 12.55 12.1412L12.026 12.5552C11.829 12.9152 11.8 13.1382 11.852 13.2612C11.865 13.2915 11.8839 13.319 11.9076 13.342C11.9313 13.365 11.9593 13.3831 11.99 13.3952C12.0661 13.4265 12.1478 13.4418 12.23 13.4402C12.4263 13.4379 12.6213 13.4093 12.81 13.3552C12.9081 13.3283 13.0052 13.2976 13.101 13.2632L13.13 13.2512L13.183 13.2232C13.283 13.0942 13.513 12.8512 13.801 12.5712C14.711 11.6932 15.176 11.0692 15.081 10.8362C15.038 10.7232 14.964 10.6662 14.848 10.6702ZM12.424 11.7502C12.35 11.7582 12.184 11.8862 11.885 12.1482C11.453 12.5302 10.982 12.7502 10.819 12.6522L10.705 12.6762C10.539 12.7092 10.332 12.7362 10.147 12.7212C10.0598 12.7161 9.97433 12.6947 9.895 12.6582C9.82027 12.6237 9.76058 12.5633 9.727 12.4882C9.69 12.3982 9.69 12.2862 9.732 12.1432L9.082 12.6772L7.611 13.8942V15.8672L12.431 12.0702C12.4299 12.0286 12.4353 11.9871 12.447 11.9472C12.484 11.8132 12.482 11.7452 12.424 11.7512V11.7502ZM14.498 12.3892C14.425 12.3892 14.303 12.4922 14.108 12.6992C13.843 12.9822 13.426 13.2562 13.205 13.3122L13.171 13.3302L13.061 13.3722C13.0003 13.3929 12.9243 13.4155 12.833 13.4402C12.653 13.4892 12.429 13.5342 12.229 13.5292C12.1346 13.5299 12.0411 13.5116 11.954 13.4752C11.8714 13.4416 11.8054 13.377 11.77 13.2952C11.712 13.1562 11.735 12.9612 11.862 12.6842L7.61 16.0332V17.2382H9.478L13.44 14.1262C13.5427 14.0115 13.6983 13.8565 13.907 13.6612C14.467 13.1422 14.594 12.9632 14.594 12.6982C14.594 12.4922 14.571 12.3882 14.498 12.3882V12.3892ZM15.441 14.3392L15.102 14.6772C14.912 14.8572 14.573 15.0792 14.341 15.1742L14.295 15.1942L14.292 15.1992L14.282 15.2092C14.273 15.2162 14.269 15.2172 14.262 15.2202C14.1696 15.2558 14.0755 15.2869 13.98 15.3132C13.7682 15.3753 13.5502 15.4139 13.33 15.4282C13.2259 15.4354 13.1213 15.4263 13.02 15.4012C12.9319 15.3822 12.8541 15.3308 12.802 15.2572C12.7527 15.1832 12.741 15.0849 12.767 14.9622C12.7873 14.875 12.8193 14.7909 12.862 14.7122L9.665 17.2382H13.917L14.425 16.6562C15.123 15.8422 15.441 15.2602 15.441 14.7622V14.3392Z" fill="#DB7093"/>
</svg>
