<svg width="22" height="24" viewBox="0 0 22 24" fill="none" xmlns="http://www.w3.org/2000/svg">
<path d="M21.066 18.498L11.296 24V19.715L17.383 16.381L21.066 18.498ZM21.734 17.895V6.388L18.159 8.443V15.839L21.734 17.895ZM0.668 18.498L10.438 24V19.715L4.351 16.38L0.668 18.498ZM0 17.895V6.388L3.575 8.443V15.839L0 17.895ZM0.418 5.644L10.438 0V4.143L4.019 7.66L3.97 7.688L0.418 5.644ZM21.316 5.644L11.296 0V4.143L17.715 7.659L17.764 7.687L21.316 5.644ZM10.437 18.74L4.432 15.453V8.938L10.437 12.391V18.74ZM11.295 18.74L17.3 15.453V8.938L11.295 12.391V18.74ZM4.839 8.185L10.869 4.883L16.897 8.185L10.868 11.651L4.839 8.185Z" fill="#8DD6F9"/>
</svg>
